HIERARCHY
ROOT Hips
{
  OFFSET 5.84602e-005 68.8428 3.50346
  CHANNELS 6 Xposition Yposition Zposition Zrotation Xrotation Yrotation
  JOINT Spine
  {
    OFFSET 0 8.597 -4.6522
    CHANNELS 3 Zrotation Xrotation Yrotation
    JOINT Spine1
    {
      OFFSET 0 7.8454 0.4098
      CHANNELS 3 Zrotation Xrotation Yrotation
      JOINT Spine2
      {
        OFFSET 0 9.7078 -2.1609
        CHANNELS 3 Zrotation Xrotation Yrotation
        JOINT Neck
        {
          OFFSET 0 21.8761 -0.4549
          CHANNELS 3 Zrotation Xrotation Yrotation
          JOINT Head
          {
            OFFSET 0 12.3537 3.3602
            CHANNELS 3 Zrotation Xrotation Yrotation
            End Site
            {
              OFFSET 0.0001 18.9506 0.5657
            }
          }
        }
        JOINT LeftShoulder
        {
          OFFSET 2.2086 21.1115 7.2329
          CHANNELS 3 Zrotation Xrotation Yrotation
          JOINT LeftArm
          {
            OFFSET 13.1193 3.0282 -4.8998
            CHANNELS 3 Zrotation Xrotation Yrotation
            JOINT LeftForeArm
            {
              OFFSET 27.4081 -0.0973053 -0.2375
              CHANNELS 3 Zrotation Xrotation Yrotation
              JOINT LeftHand
              {
                OFFSET 22.8641 0.0662994 -0.1369
                CHANNELS 3 Zrotation Xrotation Yrotation
                JOINT LeftHandIndex1
                {
                  OFFSET 8.8614 0.775009 2.4612
                  CHANNELS 3 Zrotation Xrotation Yrotation
                  JOINT LeftHandIndex2
                  {
                    OFFSET 3.3146 -0.808304 0.5841
                    CHANNELS 3 Zrotation Xrotation Yrotation
                    JOINT LeftHandIndex3
                    {
                      OFFSET 2.2628 -0.552002 0.3989
                      CHANNELS 3 Zrotation Xrotation Yrotation
                      End Site
                      {
                        OFFSET 1.6102 -0.4807 0.2612
                      }
                    }
                  }
                }
                JOINT LeftHandMiddle1
                {
                  OFFSET 8.9937 0.895004 0.2143
                  CHANNELS 3 Zrotation Xrotation Yrotation
                  JOINT LeftHandMiddle2
                  {
                    OFFSET 4.0984 0.0113983 -0.0242
                    CHANNELS 3 Zrotation Xrotation Yrotation
                    JOINT LeftHandMiddle3
                    {
                      OFFSET 2.2716 0.00689697 -0.0138001
                      CHANNELS 3 Zrotation Xrotation Yrotation
                      End Site
                      {
                        OFFSET 2.0404 -0.1441 0.0027
                      }
                    }
                  }
                }
                JOINT LeftHandRing1
                {
                  OFFSET 8.5234 0.597198 -2.0164
                  CHANNELS 3 Zrotation Xrotation Yrotation
                  JOINT LeftHandRing2
                  {
                    OFFSET 3.7188 -0.188293 -0.2328
                    CHANNELS 3 Zrotation Xrotation Yrotation
                    JOINT LeftHandRing3
                    {
                      OFFSET 2.1191 -0.106598 -0.1332
                      CHANNELS 3 Zrotation Xrotation Yrotation
                      End Site
                      {
                        OFFSET 1.8737 -0.2304 -0.0886
                      }
                    }
                  }
                }
                JOINT LeftHandPinky1
                {
                  OFFSET 7.9094 -0.601089 -3.4825
                  CHANNELS 3 Zrotation Xrotation Yrotation
                  JOINT LeftHandPinky2
                  {
                    OFFSET 2.2874 -0.477005 -0.6314
                    CHANNELS 3 Zrotation Xrotation Yrotation
                    JOINT LeftHandPinky3
                    {
                      OFFSET 1.6774 -0.349396 -0.4633
                      CHANNELS 3 Zrotation Xrotation Yrotation
                      End Site
                      {
                        OFFSET 1.4888 -0.4091 -0.3416
                      }
                    }
                  }
                }
                JOINT LeftHandThumb1
                {
                  OFFSET 1.833 -1.3875 1.3896
                  CHANNELS 3 Zrotation Xrotation Yrotation
                  JOINT LeftHandThumb2
                  {
                    OFFSET 3.4129 -1.121 2.5732
                    CHANNELS 3 Zrotation Xrotation Yrotation
                    JOINT LeftHandThumb3
                    {
                      OFFSET 2.2474 -0.804199 1.6192
                      CHANNELS 3 Zrotation Xrotation Yrotation
                      End Site
                      {
                        OFFSET 1.6527 -0.5689 1.1317
                      }
                    }
                  }
                }
              }
            }
          }
        }
        JOINT RightShoulder
        {
          OFFSET -2.2086 21.1115 7.2329
          CHANNELS 3 Zrotation Xrotation Yrotation
          JOINT RightArm
          {
            OFFSET -13.1216 3.0287 -4.9007
            CHANNELS 3 Zrotation Xrotation Yrotation
            JOINT RightForeArm
            {
              OFFSET -27.4081 -0.0973053 -0.2375
              CHANNELS 3 Zrotation Xrotation Yrotation
              JOINT RightHand
              {
                OFFSET -22.8641 0.0664063 -0.1369
                CHANNELS 3 Zrotation Xrotation Yrotation
                JOINT RightHandIndex1
                {
                  OFFSET -8.8614 0.774994 2.4612
                  CHANNELS 3 Zrotation Xrotation Yrotation
                  JOINT RightHandIndex2
                  {
                    OFFSET -3.3146 -0.808304 0.5841
                    CHANNELS 3 Zrotation Xrotation Yrotation
                    JOINT RightHandIndex3
                    {
                      OFFSET -2.2628 -0.552002 0.3989
                      CHANNELS 3 Zrotation Xrotation Yrotation
                      End Site
                      {
                        OFFSET -1.6102 -0.4807 0.2612
                      }
                    }
                  }
                }
                JOINT RightHandMiddle1
                {
                  OFFSET -8.9937 0.894989 0.2143
                  CHANNELS 3 Zrotation Xrotation Yrotation
                  JOINT RightHandMiddle2
                  {
                    OFFSET -4.0984 0.0113983 -0.0242
                    CHANNELS 3 Zrotation Xrotation Yrotation
                    JOINT RightHandMiddle3
                    {
                      OFFSET -2.2716 0.00691223 -0.0138001
                      CHANNELS 3 Zrotation Xrotation Yrotation
                      End Site
                      {
                        OFFSET -2.0404 -0.1441 0.0027
                      }
                    }
                  }
                }
                JOINT RightHandRing1
                {
                  OFFSET -8.5234 0.597198 -2.0164
                  CHANNELS 3 Zrotation Xrotation Yrotation
                  JOINT RightHandRing2
                  {
                    OFFSET -3.7188 -0.188309 -0.2328
                    CHANNELS 3 Zrotation Xrotation Yrotation
                    JOINT RightHandRing3
                    {
                      OFFSET -2.1191 -0.106598 -0.1332
                      CHANNELS 3 Zrotation Xrotation Yrotation
                      End Site
                      {
                        OFFSET -1.8737 -0.2304 -0.0886
                      }
                    }
                  }
                }
                JOINT RightHandPinky1
                {
                  OFFSET -7.9094 -0.601105 -3.4825
                  CHANNELS 3 Zrotation Xrotation Yrotation
                  JOINT RightHandPinky2
                  {
                    OFFSET -2.2874 -0.477005 -0.6314
                    CHANNELS 3 Zrotation Xrotation Yrotation
                    JOINT RightHandPinky3
                    {
                      OFFSET -1.6774 -0.349396 -0.4633
                      CHANNELS 3 Zrotation Xrotation Yrotation
                      End Site
                      {
                        OFFSET -1.4888 -0.4091 -0.3416
                      }
                    }
                  }
                }
                JOINT RightHandThumb1
                {
                  OFFSET -1.833 -1.38751 1.3896
                  CHANNELS 3 Zrotation Xrotation Yrotation
                  JOINT RightHandThumb2
                  {
                    OFFSET -3.41299 -1.12099 2.5732
                    CHANNELS 3 Zrotation Xrotation Yrotation
                    JOINT RightHandThumb3
                    {
                      OFFSET -2.24741 -0.804108 1.6192
                      CHANNELS 3 Zrotation Xrotation Yrotation
                      End Site
                      {
                        OFFSET -1.6527 -0.5689 1.1317
                      }
                    }
                  }
                }
              }
            }
          }
        }
      }
    }
  }
  JOINT RightUpLeg
  {
    OFFSET -9.1966 3.8861 -0.7581
    CHANNELS 3 Zrotation Xrotation Yrotation
    JOINT RightLeg
    {
      OFFSET -0.7359 -41.0265 0
      CHANNELS 3 Zrotation Xrotation Yrotation
      JOINT RightFoot
      {
        OFFSET 0 -40.2855 0
        CHANNELS 3 Zrotation Xrotation Yrotation
        JOINT RightToeBase
        {
          OFFSET 0 -5.6122 11.7359
          CHANNELS 3 Zrotation Xrotation Yrotation
          End Site
          {
            OFFSET 0 0 7.8731
          }
        }
      }
    }
  }
  JOINT LeftUpLeg
  {
    OFFSET 9.1965 3.8864 -0.7581
    CHANNELS 3 Zrotation Xrotation Yrotation
    JOINT LeftLeg
    {
      OFFSET 0.7359 -41.0268 0
      CHANNELS 3 Zrotation Xrotation Yrotation
      JOINT LeftFoot
      {
        OFFSET 0 -40.2855 0
        CHANNELS 3 Zrotation Xrotation Yrotation
        JOINT LeftToeBase
        {
          OFFSET 0 -5.6122 11.7359
          CHANNELS 3 Zrotation Xrotation Yrotation
          End Site
          {
            OFFSET 0 0 7.8731
          }
        }
      }
    }
  }
}
MOTION
Frames:	4
Frame Time:	0.0333333
5.84602e-005 68.8428 3.50346 0 0 -0 0 0 -0 0 0 -0 0 0 -0 0 0 -0 0 0 -0 0 0 -0 0 0 -0 0 0 -0 0 0 -0 0 0 -0 0 0 -0 0 0 -0 0 0 -0 -0.0146107 -8.87603e-005 -2.63497e-007 2.99804e-018 -2.42657e-020 -1.42182e-022 0 0 -0 -0.0187562 -0.001176 5.858e-005 5.06224e-018 3.88251e-019 1.21329e-020 0 0 -0 -0.012269 -0.00324817 0.000675346 -1.74678e-018 3.88251e-019 -0 0 0 -0 0 0 -0 0 0 -0 0 0 -0 0 0 -0 0 0 -0 0 0 -0 0 0 -0 0 0 -0 0 0 -0 0 0 -0 0.0149955 -9.10982e-005 2.64101e-007 -9.69331e-018 1.21329e-020 -4.7394e-023 0 0 -0 0.0189956 -0.00119102 -5.96516e-005 -5.41541e-019 0 2.42657e-020 0 0 -0 0.0122698 -0.00324857 -0.000673756 -2.00796e-019 0 -1.94126e-019 0 0 -0 0 0 -0 0 0 -0 3.39842 1.33031 -0.0637918 -5.65207e-008 0.834868 -0.000436188 -3.39935 -2.16518 -0.0642563 -8.89002e-024 -1.18485e-023 -1.48106e-024 -3.39844 1.35642 0.0640283 -3.18788e-007 0.782166 -0.000588827 3.39931 -2.13858 0.0634662 1.1399e-023 0 -0 
34.4656 25.6857 20.4197 133.331 43.6931 -9.52376e-007 -0.0150446 4.74599 -0.0645399 -0.0248026 9.492 -0.128506 -0.0248085 9.49199 -0.1285 1.61738e-005 10.368 -2.55345e-005 -7.74039e-007 0.0997326 5.68e-006 -31.019 -2.75213 1.12489 1.11891 40.9378 1.04653 0.64435 26.8974 -2.77709 0.889122 10.5582 -3.87491 -5.29669e-031 3.18055e-015 9.54166e-015 7.06225e-031 -1.27222e-014 3.18055e-015 -3.18055e-015 9.54166e-015 9.54166e-015 -5.29669e-031 3.18055e-015 9.54166e-015 -0.0147015 -8.63626e-005 -1.05288e-006 3.18055e-015 3.18055e-015 -1.59028e-014 -5.29669e-031 3.18055e-015 9.54166e-015 -0.0187309 -0.00117236 5.42896e-005 -3.18055e-015 -6.36111e-015 9.54166e-015 -5.29669e-031 3.18055e-015 9.54166e-015 -0.0122585 -0.00324188 0.000672417 -3.18055e-015 0 -3.18055e-015 -5.29669e-031 3.18055e-015 9.54166e-015 7.06225e-031 -1.27222e-014 3.18055e-015 -3.18055e-015 9.54166e-015 9.54166e-015 30.6526 -2.77566 -0.998012 -1.04441 41.0277 -1.1855 -0.78587 26.8723 2.91161 -0.838371 10.5817 3.89735 6.36111e-015 0 9.54166e-015 -9.54166e-015 -3.18055e-015 3.18055e-015 -3.18055e-015 3.18055e-015 -0 6.36111e-015 0 9.54166e-015 0.0150124 -9.3587e-005 1.21734e-006 2.54444e-014 -6.36111e-015 -1.27222e-014 6.36111e-015 0 9.54166e-015 0.0189105 -0.00118595 -5.86172e-005 9.54166e-015 -9.54166e-015 1.27222e-014 6.36111e-015 0 9.54166e-015 0.0124738 -0.00330421 -0.000684788 3.18055e-015 6.36111e-015 -1.27222e-014 6.36111e-015 0 9.54166e-015 -9.54166e-015 -3.18055e-015 3.18055e-015 -3.18055e-015 3.18055e-015 -0 -3.91817 -46.5593 -34.3818 -90.3951 66.8051 110.051 -5.66941 -7.94695 -5.14636 -1.91009e-007 -7.07996e-006 2.75844e-006 6.93855 -53.3244 34.5655 82.7792 62.3786 -86.0378 17.8258 -8.10915 7.49723 5.42728e-007 3.2001e-006 1.47231e-006 
41.2911 2.31848 28.245 -166.669 63.358 2.58909e-007 -0.0226988 7.02047 -0.0932253 -0.0341719 14.0409 -0.18572 -0.0341709 14.0409 -0.185733 -4.11169e-005 15.0338 2.76542e-005 -7.12175e-007 0.144609 9.4602e-007 -43.8598 -4.0955 1.49102 -0.207443 59.3438 2.28294 2.36522 38.9363 -5.29139 1.76039 14.7721 -5.40942 1.52184e-006 -1.09963e-006 2.76228e-008 -7.77621e-007 1.48844e-006 1.15709e-007 1.52184e-006 -1.09963e-006 2.76228e-008 1.52184e-006 -1.09963e-006 2.76228e-008 -0.0146046 -8.9283e-005 5.86014e-008 1.5218e-006 -1.09963e-006 2.74814e-008 1.52184e-006 -1.09963e-006 2.76228e-008 -0.0187623 -0.00117572 6.39159e-005 1.52179e-006 -1.09964e-006 2.74273e-008 1.52184e-006 -1.09963e-006 2.76228e-008 -0.0122916 -0.00325121 0.000680942 1.5218e-006 -1.09965e-006 2.74637e-008 1.52184e-006 -1.09963e-006 2.76228e-008 -7.77621e-007 1.48844e-006 1.15709e-007 1.52184e-006 -1.09963e-006 2.76228e-008 43.3433 -4.13085 -1.31074 0.443247 59.4674 -2.58405 -2.61557 38.8937 5.50619 -1.69245 14.8039 5.44385 6.36111e-015 6.36111e-015 -6.36111e-015 1.48019e-006 -6.86508e-007 4.52851e-007 3.18055e-015 4.77083e-015 -0 6.36111e-015 6.36111e-015 -6.36111e-015 0.0149885 -9.44976e-005 -4.03188e-006 -6.36111e-015 -6.36111e-015 6.36111e-015 6.36111e-015 6.36111e-015 -6.36111e-015 0.0189691 -0.00119031 -5.70549e-005 -3.18055e-015 1.59028e-015 -0 6.36111e-015 6.36111e-015 -6.36111e-015 0.0122588 -0.00324374 -0.000672092 -9.54166e-015 6.36111e-015 1.59028e-014 6.36111e-015 6.36111e-015 -6.36111e-015 1.48019e-006 -6.86508e-007 4.52851e-007 3.18055e-015 4.77083e-015 -0 -31.8912 -56.1094 -67.6773 -126.327 33.9137 140.552 -6.1489 -8.14588 -7.77726 5.75236e-007 1.58485e-006 -4.26859e-008 48.149 -61.5993 80.6965 136.35 37.0563 -125.552 25.3114 -11.8234 11.8407 -4.21709e-006 7.43917e-007 -4.88446e-006 
39.7296 8.1728 26.3423 179.997 58.9947 3.2456e-011 -0.0220192 6.82424 -0.08646 -0.0339456 13.6485 -0.17211 -0.0339456 13.6485 -0.17211 1.92891e-006 13.9967 -3.83653e-007 -7.84957e-008 0.134642 7.19366e-009 -38.5988 -4.03441 1.09486 -1.7601 55.2477 1.96469 2.55163 36.2398 -6.0938 1.55972 12.7246 -4.36914 -3.06461e-007 4.44208e-007 -2.45178e-006 -1.57165e-006 2.98937e-007 -8.92586e-007 -3.06462e-007 4.44208e-007 -2.45178e-006 -3.06461e-007 4.44208e-007 -2.45178e-006 -0.0146024 -8.94154e-005 -3.38647e-006 -3.08236e-007 4.4451e-007 -2.45173e-006 -3.06461e-007 4.44208e-007 -2.45178e-006 -0.0187622 -0.00117615 5.61024e-005 -3.8792e-007 -1.71724e-007 -4.50837e-008 -3.06461e-007 4.44208e-007 -2.45178e-006 -0.0122734 -0.00324924 0.000670671 -3.08018e-007 4.44078e-007 -2.45165e-006 -3.06461e-007 4.44208e-007 -2.45178e-006 -1.57165e-006 2.98937e-007 -8.92586e-007 -3.06462e-007 4.44208e-007 -2.45178e-006 38.1402 -4.06945 -0.935168 1.93711 55.3572 -2.20692 -2.76301 36.1999 6.27268 -1.49927 12.7509 4.40264 8.82781e-032 -1.59028e-015 3.18055e-015 -4.44048e-008 3.89133e-007 -2.38472e-006 -3.23627e-009 5.58732e-007 2.36593e-006 8.82781e-032 -1.59028e-015 3.18055e-015 0.0149839 -9.0703e-005 6.04791e-006 0 1.59028e-015 -0 8.82781e-032 -1.59028e-015 3.18055e-015 0.0189872 -0.00119074 -5.81977e-005 -9.08407e-010 5.5898e-007 2.36583e-006 8.82781e-032 -1.59028e-015 3.18055e-015 0.0122641 -0.00324611 -0.00068109 1.59028e-015 2.38542e-015 -6.36111e-015 8.82781e-032 -1.59028e-015 3.18055e-015 -4.44048e-008 3.89133e-007 -2.38472e-006 -3.23627e-009 5.58732e-007 2.36593e-006 -24.6933 -55.6441 -59.7812 -122.95 41.4131 139.094 -6.30066 -8.27849 -7.18653 -4.42289e-008 2.21154e-008 -7.67315e-007 37.7095 -62.5783 69.8124 129.606 43.5552 -122.721 23.8509 -10.9246 11.1512 -1.56893e-007 5.40711e-008 1.34095e-007 
